<!-- Created with Inkscape (http://www.inkscape.org/) -->
<svg 
xmlns:inkscape="http://www.inkscape.org/namespaces/inkscape" 
xmlns:rdf="http://www.w3.org/1999/02/22-rdf-syntax-ns#" 
xmlns="http://www.w3.org/2000/svg" 
sodipodi:docname="icon.svg" 
xml:space="preserve" 
height="41px" 
width="41px"
viewBox="0 0 33 33" enable-background="new 0 0 33 33" 
version="1.1" 
xmlns:cc="http://creativecommons.org/ns#" 
xmlns:dc="http://purl.org/dc/elements/1.1/" 
inkscape:version="0.48.0 r9654" 
xmlns:sodipodi="http://sodipodi.sourceforge.net/DTD/sodipodi-0.dtd">
<metadata><rdf:RDF><cc:Work rdf:about=""><dc:format>image/svg+xml</dc:format>
<dc:type rdf:resource="http://purl.org/dc/dcmitype/StillImage"/><dc:title/></cc:Work></rdf:RDF></metadata><defs>
<clipPath id="clipPath3419" clipPathUnits="userSpaceOnUse"><path fill="none" d="m0,32.906,32.875,0v-32.906h-32.875v32.906z"/>
</clipPath></defs>
<sodipodi:namedview bordercolor="#666666" inkscape:pageshadow="2" guidetolerance="10" pagecolor="#ffffff" gridtolerance="10" inkscape:window-maximized="1" inkscape:zoom="7.4393273" objecttolerance="10" borderopacity="1" inkscape:current-layer="g3395" inkscape:cx="20.546875" inkscape:cy="20.566376" inkscape:window-y="1" inkscape:window-x="0" inkscape:window-width="1600" showgrid="false" inkscape:pageopacity="0" inkscape:window-height="871"/>
<g inkscape:label="icon_template" inkscape:groupmode="layer" transform="matrix(1.25,0,0,-1.25,0,41.13275)">
<path fill-rule="nonzero" fill="#020202" d="m0,0,32.875,0,0,32.906h-32.875v-32.906z"/>
<g>
<g clip-path="url(#clipPath3419)">
<path stroke-linejoin="miter" d="M32.875,0,0,0v32.906h32.875v-32.906z" stroke="#f5f5f5" stroke-linecap="butt" stroke-miterlimit="10" stroke-dasharray="none" stroke-width="1" fill="none"/>
</g>
</g>
<g stroke-linejoin="round" transform="matrix(0.45207097,0,0,-0.45207097,-0.66118689,32.094218)" stroke="#FFF" stroke-linecap="round" stroke-dasharray="none" stroke-miterlimit="4" stroke-width="3" fill="none">
<path fill="none" d="M21.629,53.698,41.262,37.227,41.761,20.756,18.302,20.256v14.309l-8.6517,16.139z" inkscape:connector-curvature="0"/><path fill="none" d="m21.463,53.865,0,9.4836-11.813-4.4922,0-8.3189z" inkscape:connector-curvature="0"/><path fill="none" d="M21.796,63.182,32.61,65.511,55.903,43.05,53.74,19.258,51.411,15.431,41.595,20.922,41.428,37.393,21.629,53.865z" inkscape:connector-curvature="0"/><path fill="none" d="m18.468,20.09,10.648-5.9896,22.627,1.331-9.8163,5.4905z" inkscape:connector-curvature="0"/><path fill="none" d="m18.302,34.232,22.96,2.8284,0.83189-15.972-23.958-0.66551,10.815,10.482,12.977-9.6499-9.6499,7.487,8.818,8.3189z" inkscape:connector-curvature="0"/><path fill="none" d="m25.789,28.076-7.3206,6.156" inkscape:connector-curvature="0"/><path fill="none" d="m55.071,34.731c1.1254,4.2664,6.177,6.3905,1.6638,15.806-4.8111,7.8315-11.003,6.6439-13.643,4.9913" sodipodi:nodetypes="ccc" inkscape:connector-curvature="0"/><path fill="none" d="m55.238,33.733c7.6316,2.782,10.444,9.034,6.9879,19.799-4.3108,5.8098-8.2749,7.4585-12.146,7.9861-3.2255-0.59233-6.6389-0.80882-8.1525-4.825" sodipodi:nodetypes="cccc" inkscape:connector-curvature="0"/><path fill="none" d="m42.926,17.262,3.6603-12.478,0,0,0,0,0,0" inkscape:connector-curvature="0"/><path fill="none" d="M30.281,16.263,27.952,4.6169" inkscape:connector-curvature="0"/><path fill="none" d="M24.624,11.938c-4.061-9.9269,8.868-12.793,8.485-1.664" sodipodi:nodetypes="cc" inkscape:connector-curvature="0"/><path fill="none" d="M39.432,8.7729c-5.524-11.348,22.292-4.7484,10.814,3.8271" sodipodi:nodetypes="cc" inkscape:connector-curvature="0"/></g></g></svg>
