<?xml version="1.0" encoding="UTF-8" standalone="no"?>
<!-- Created with Inkscape (http://www.inkscape.org/) -->

<svg
  version="1.1" baseProfile="basic"
	 xmlns="http://www.w3.org/2000/svg" xmlns:xlink="http://www.w3.org/1999/xlink" xmlns:a="http://ns.adobe.com/AdobeSVGViewerExtensions/3.0/"
	 x="0px" y="0px" width="40px" height="40px" viewBox="0 0 40 40" enable-background="new 0 0 40 40" xml:space="preserve">
   <defs>
   </defs>
	<path fill="none" stroke="#FFFFFF" d="m 0,0 c 10.958333,0 21.916667,0 32.875,0 c 0,10.968667 0,21.937333 0,32.906 c -10.958333,0 -21.916667,0 -32.875,0 C 0,21.937333 0,10.968667 0,0 z"/>
	<path fill="none" stroke="#FFFFFF" d="M 32.875,0 C 21.916667,0 10.958333,0 0,0 c 0,10.968667 0,21.937333 0,32.906 c 10.958333,0 21.916667,0 32.875,0 c 0,-10.968667 0,-21.937333 0,-32.906 z"/>
	<path fill="none" stroke="#FFFFFF" d="M 13.334539,26.292699 C 11.631876,25.342792 9.9292133,24.392885 8.2265504,23.442978 C 8.1370124,21.330441 8.2594265,19.187356 8.0339977,17.094126 C 6.7181288,14.532568 5.4022599,11.97101 4.086391,9.409452 C 4.0684683,8.1369355 4.0505457,6.8644189 4.032623,5.5919024 c 3.3133592,-0.8869728 6.6416,-1.7238422 10.000904,-2.4195736 c 3.441171,3.1185617 6.882343,6.2371235 10.323514,9.3556852 c 0.23056,3.892472 0.938509,7.891041 -0.203198,11.710549 c -0.213618,2.113441 -2.582593,1.633999 -4.131247,1.926136 c -2.222985,0.197715 -4.459062,0.220326 -6.688057,0.128 z"/>
	<path fill="none" stroke="#FFFFFF" d="m 8.3340872,23.442978 c 3.3336348,-0.08961 6.6672688,-0.179227 10.0009038,-0.26884 c -0.01792,-2.347883 -0.03585,-4.695765 -0.05377,-7.043648 c -3.36948,0.394301 -6.738961,0.788601 -10.1084414,1.182902 c 0.05377,2.043195 0.1075345,4.086395 0.1613076,6.129586 z"/>
	<path fill="none" stroke="#FFFFFF" d="m 18.388759,22.905296 c 1.720586,0.896138 3.441172,1.792277 5.161758,2.688415"/>
	<path fill="none" stroke="#FFFFFF" d="M 4.1401593,9.2481472 C 5.9145134,8.8717691 7.6888675,8.4953909 9.4632216,8.1190128 c 2.9931024,2.6167242 5.9862044,5.2334482 8.9793064,7.8501722"/>
	<path fill="none" stroke="#FFFFFF" d="m 9.6245264,8.065244 c 0,-1.3262848 0,-2.6525696 0,-3.9788544" />
	<path fill="none" stroke="#FFFFFF" d="m 19.571662,7.957708 c 0.833224,-2.2057377 3.665702,-0.8853817 4.801175,0.3612235 c 2.290968,1.6509462 2.909808,5.0851235 1.337082,7.4306135 c -0.239786,0.399608 -0.514988,0.777459 -0.815195,1.133701"/>	
	<path fill="none" stroke="#FFFFFF" d="M 19.033979,7.5813296 C 20.109894,4.8809089 24.165246,3.9306193 26.15468,6.1747493 c 2.683915,2.5349767 3.344125,7.2932407 0.623897,10.0471597 c -0.524903,0.569574 -1.145952,1.050681 -1.830084,1.414093"/>
	<path fill="none" stroke="#FFFFFF" d="M 8.2265504,23.38921 C 9.8216769,21.901621 11.416803,20.414031 13.01193,18.926442 c 1.738508,1.326285 3.477016,2.652569 5.215524,3.978854"/>
	<path fill="none" stroke="#FFFFFF" d="m 8.3340872,17.313392 c 1.1291343,0.96783 2.2582688,1.935659 3.3874028,2.903489"/>
	<path fill="none" stroke="#FFFFFF" d="m 18.012382,16.13049 c -1.236671,1.218748 -2.473342,2.437496 -3.710013,3.656244"/>
	<path fill="none" stroke="#FFFFFF" d="m 13.603381,25.109796 c -0.51976,1.881891 -1.039521,3.763781 -1.559281,5.645672"/>
	<path fill="none" stroke="#FFFFFF" d="m 19.195284,25.109796 c 0.64522,1.917736 1.290439,3.835472 1.935659,5.753208"/>
	<path fill="none" stroke="#FFFFFF" d="m 13.065698,26.722845 c -1.747711,-1.166967 -3.4946108,1.196002 -2.676267,2.829049 c 0.704154,1.573066 3.746607,2.674352 4.479881,0.556122 c 0.701222,-1.548093 -0.06108,-3.214554 -1.803614,-3.385171 z"/>
	<path fill="none" stroke="#FFFFFF" d="m 19.679198,26.722845 c -2.046698,-0.187578 -3.592194,2.992373 -1.634783,4.116324 c 1.814029,0.542602 4.286197,-0.192039 5.448817,-1.669384 c 1.008878,-1.61151 -0.736744,-3.756668 -2.484907,-2.892727 c -0.448994,0.13065 -0.880953,0.312653 -1.329127,0.445787 z"/>
</svg>
