<?xml version="1.0" encoding="utf-8"?>
<!-- Generator: Adobe Illustrator 14.0.0, SVG Export Plug-In  -->
<!DOCTYPE svg PUBLIC "-//W3C//DTD SVG 1.1 Basic//EN" "http://www.w3.org/Graphics/SVG/1.1/DTD/svg11-basic.dtd" [
	<!ENTITY ns_flows "http://ns.adobe.com/Flows/1.0/">
]>
<svg version="1.1" baseProfile="basic"
	 xmlns="http://www.w3.org/2000/svg" xmlns:xlink="http://www.w3.org/1999/xlink" xmlns:a="http://ns.adobe.com/AdobeSVGViewerExtensions/3.0/"
	 x="0px" y="0px" width="40px" height="40px" viewBox="0 0 40 40" enable-background="new 0 0 40 40" xml:space="preserve">
<defs>
</defs>
<path fill="#FFFFFF" d="M15.254,38.372C15.254,38.372,15.254,38.372,15.254,38.372c-1.813,0-3.138-0.44-3.193-0.459l-7.472-2.109
	c-0.374-0.105-0.632-0.446-0.632-0.835v-4.279c0-0.135,0.031-0.268,0.092-0.389l5.248-10.478v-7.476c0-0.316,0.172-0.608,0.45-0.76
	l6.314-3.469c0.128-0.07,0.272-0.107,0.418-0.107h10.906c1.237,0,2.282,0.421,3.105,1.251c2.322,2.343,2.276,7.346,2.24,11.366
	c-0.005,0.445-0.009,0.874-0.009,1.276c0,4.654-1.514,5.973-2.03,6.287c-0.555,0.443-5.412,4.34-8.9,7.667
	C20.066,37.503,17.806,38.372,15.254,38.372L15.254,38.372z M5.692,34.313l6.882,1.943c0.051,0.016,1.167,0.381,2.68,0.381
	c2.127,0,3.923-0.685,5.339-2.034c3.742-3.569,9.017-7.769,9.069-7.811c0.05-0.04,0.104-0.073,0.16-0.102l0,0
	c-0.01,0,1.164-0.848,1.164-4.786c0-0.407,0.004-0.841,0.008-1.292c0.031-3.503,0.075-8.3-1.738-10.129
	c-0.491-0.496-1.104-0.737-1.872-0.737H16.701l-5.669,3.115v7.167c0,0.135-0.031,0.268-0.092,0.389L5.692,30.895V34.313
	L5.692,34.313z"/>
<path fill="#FFFFFF" d="M12.097,37.891c-0.479,0-0.868-0.388-0.868-0.867v-5.309c0-0.249,0.107-0.486,0.294-0.651l11.039-9.718
	v-8.999c0-0.311,0.165-0.597,0.435-0.752l5.478-3.154c0.414-0.242,0.946-0.096,1.185,0.319c0.239,0.416,0.097,0.946-0.319,1.185
	l-5.043,2.904v8.89c0,0.249-0.106,0.486-0.294,0.651l-11.038,9.718v4.916C12.965,37.503,12.576,37.891,12.097,37.891L12.097,37.891z
	"/>
<path fill="#FFFFFF" d="M23.43,13.215H10.163c-0.479,0-0.868-0.389-0.868-0.868s0.389-0.868,0.868-0.868H23.43
	c0.479,0,0.867,0.389,0.867,0.868S23.909,13.215,23.43,13.215L23.43,13.215z"/>
<path fill="#FFFFFF" d="M23.431,22.452c-0.033,0-0.067-0.002-0.103-0.007l-13.266-1.557c-0.476-0.056-0.816-0.487-0.761-0.963
	c0.056-0.476,0.488-0.814,0.963-0.761l13.267,1.558c0.476,0.056,0.816,0.486,0.76,0.963C24.239,22.127,23.864,22.452,23.431,22.452
	L23.431,22.452z"/>
<path fill="#FFFFFF" d="M16.327,18.465c-0.169,0-0.338-0.059-0.476-0.179l-6.164-5.395c-0.301-0.263-0.331-0.72-0.068-1.02
	c0.263-0.3,0.72-0.331,1.02-0.068l6.164,5.395c0.301,0.263,0.331,0.72,0.068,1.02C16.729,18.382,16.528,18.465,16.327,18.465
	L16.327,18.465z"/>
<path fill="#FFFFFF" d="M16.328,18.465c-0.218,0-0.434-0.099-0.576-0.286c-0.242-0.318-0.18-0.772,0.138-1.013l7.103-5.395
	c0.319-0.243,0.772-0.179,1.014,0.138c0.241,0.318,0.179,0.772-0.139,1.013l-7.103,5.395C16.634,18.417,16.48,18.465,16.328,18.465
	L16.328,18.465z"/>
<path fill="#FFFFFF" d="M12.096,32.437c-0.162,0-0.326-0.054-0.46-0.166c-3.198-2.646-6.438-0.961-6.47-0.943
	c-0.351,0.188-0.79,0.056-0.979-0.296c-0.189-0.353-0.056-0.79,0.296-0.979c0.167-0.088,4.137-2.153,8.074,1.105
	c0.308,0.254,0.351,0.71,0.096,1.018C12.51,32.348,12.304,32.437,12.096,32.437L12.096,32.437z"/>
<path fill="#FFFFFF" d="M22.738,21.691c-0.188,0-0.377-0.073-0.519-0.219l-4.529-4.657c-0.278-0.286-0.272-0.744,0.015-1.022
	c0.285-0.278,0.743-0.273,1.022,0.015l4.529,4.657c0.278,0.286,0.271,0.744-0.015,1.022C23.102,21.624,22.92,21.691,22.738,21.691
	L22.738,21.691z"/>
<path fill="#FFFFFF" d="M10.163,20.561c-0.189,0-0.379-0.074-0.521-0.221c-0.277-0.288-0.268-0.746,0.02-1.022l4.077-3.922
	c0.289-0.276,0.746-0.268,1.022,0.02c0.277,0.288,0.268,0.746-0.02,1.022l-4.077,3.922C10.524,20.494,10.343,20.561,10.163,20.561
	L10.163,20.561z"/>
<path fill="#FFFFFF" d="M17.303,8.95c-0.391,0-0.721-0.304-0.748-0.7c-0.079-1.191-0.421-4.551-1.045-5.778
	c-0.188-0.369-0.041-0.821,0.329-1.008c0.37-0.189,0.82-0.04,1.008,0.329c0.875,1.722,1.174,5.889,1.205,6.358
	c0.027,0.414-0.286,0.771-0.699,0.798C17.337,8.95,17.32,8.95,17.303,8.95L17.303,8.95z"/>
<path fill="#FFFFFF" d="M24.992,8.95c-0.048,0-0.097-0.004-0.146-0.014c-0.406-0.08-0.671-0.475-0.59-0.881
	c0.024-0.125,0.632-3.11,2.882-6.119c0.249-0.332,0.719-0.398,1.05-0.151c0.332,0.248,0.399,0.718,0.151,1.05
	c-2.048,2.738-2.606,5.483-2.611,5.511C25.656,8.703,25.343,8.95,24.992,8.95L24.992,8.95z"/>
<path fill="#FFFFFF" d="M16.717,7.341c-2.036,0-3.692-1.378-3.692-3.073s1.656-3.073,3.692-3.073s3.692,1.378,3.692,3.073
	S18.752,7.341,16.717,7.341L16.717,7.341z M16.717,2.579c-1.251,0-2.308,0.773-2.308,1.689s1.057,1.689,2.308,1.689
	s2.308-0.773,2.308-1.689S17.968,2.579,16.717,2.579L16.717,2.579z"/>
<path fill="#FFFFFF" d="M27.514,7.191c-0.51,0-1.03-0.072-1.548-0.213c-2.246-0.615-3.672-2.322-3.245-3.886
	c0.317-1.16,1.583-1.909,3.225-1.909c0.51,0,1.03,0.072,1.547,0.213c1.019,0.279,1.915,0.801,2.523,1.472
	c0.675,0.744,0.938,1.624,0.722,2.415C30.42,6.442,29.154,7.191,27.514,7.191L27.514,7.191z M25.945,2.55
	c-0.992,0-1.759,0.362-1.906,0.902c-0.19,0.696,0.702,1.775,2.288,2.208c1.421,0.389,2.887,0.013,3.092-0.737
	c0.124-0.454-0.207-0.907-0.415-1.136c-0.43-0.474-1.112-0.864-1.872-1.072C26.732,2.605,26.333,2.55,25.945,2.55L25.945,2.55z"/>
<rect fill="none" width="40" height="40"/>
</svg>
