<?xml version="1.0" encoding="utf-8"?>
<!-- Generator: Adobe Illustrator 15.0.0, SVG Export Plug-In  -->
<!DOCTYPE svg PUBLIC "-//W3C//DTD SVG 1.1 Basic//EN" "http://www.w3.org/Graphics/SVG/1.1/DTD/svg11-basic.dtd" [
	<!ENTITY ns_flows "http://ns.adobe.com/Flows/1.0/">
]>
<svg version="1.1" baseProfile="basic"
	 xmlns="http://www.w3.org/2000/svg" xmlns:xlink="http://www.w3.org/1999/xlink" xmlns:a="http://ns.adobe.com/AdobeSVGViewerExtensions/3.0/"
	 x="0px" y="0px" width="40px" height="40px" viewBox="0 0 40 40" enable-background="new 0 0 40 40" xml:space="preserve">
<defs>
</defs>
<path fill="#FFFFFF" d="M37.719,35.952H2.437c-0.581,0-1.051-0.551-1.051-1.229V5.292c0-0.684,0.47-1.238,1.051-1.238h35.282
	c0.58,0,1.055,0.554,1.055,1.238v29.431C38.773,35.401,38.299,35.952,37.719,35.952z M3.494,33.485h33.171V6.522H3.494V33.485z"/>
<path fill="#FFFFFF" d="M19.936,25.564c-0.244,0-0.488-0.1-0.684-0.293L7.272,13.336c-0.447-0.441-0.498-1.221-0.121-1.74
	c0.374-0.522,1.041-0.583,1.487-0.14l11.311,11.267L31.672,11.44c0.447-0.433,1.112-0.353,1.487,0.173
	c0.366,0.526,0.306,1.306-0.147,1.74L20.605,25.288C20.409,25.473,20.172,25.564,19.936,25.564z"/>
<path fill="#FFFFFF" d="M7.814,28.844c-0.261,0-0.525-0.112-0.731-0.341c-0.418-0.475-0.433-1.254-0.031-1.747l6.256-7.624
	c0.402-0.482,1.071-0.506,1.49-0.032c0.419,0.474,0.433,1.253,0.031,1.744l-6.252,7.622C8.367,28.72,8.089,28.844,7.814,28.844z"/>
<path fill="#FFFFFF" d="M32.208,28.844c-0.269,0-0.529-0.116-0.735-0.344l-6.791-7.681c-0.42-0.474-0.43-1.253-0.024-1.744
	c0.401-0.494,1.071-0.507,1.493-0.032l6.789,7.678c0.418,0.475,0.429,1.259,0.023,1.748C32.757,28.72,32.481,28.844,32.208,28.844z"
	/>
<rect fill="none" width="40" height="40"/>
</svg>
